<svg width="128" height="128" viewBox="0 0 128 128" fill="none" xmlns="http://www.w3.org/2000/svg">
<path fill-rule="evenodd" clip-rule="evenodd" d="M7 70.9206V11.9078C7 2.95633 16.587 -2.78569 24.5643 1.38781L47.3034 13.2843C49.8612 14.6224 52.8126 14.9473 55.6702 14.5101C58.5485 14.0697 61.4973 13.8412 64.5 13.8412C67.5513 13.8412 70.5473 14.0772 73.4702 14.5317C76.3381 14.9777 79.3024 14.6557 81.8705 13.3122L104.436 1.50672C112.413 -2.66677 122 3.07525 122 12.0267V70.9206V71.3946C122 71.3951 121.999 71.3951 121.999 71.3951C121.999 71.3946 121.998 71.3949 121.998 71.3953C121.741 102.701 96.0967 128 64.5 128C32.8633 128 7.19417 102.637 7.0011 71.2769L7.00055 71.2767L7 71.2764V70.9206Z" fill="url(#paint0_radial_509_4)"/>
<defs>
<radialGradient id="paint0_radial_509_4" cx="0" cy="0" r="1" gradientUnits="userSpaceOnUse" gradientTransform="translate(7) rotate(48.0622) scale(172.073 145.997)">
<stop stop-color="#FF5E5E"/>
<stop offset="1" stop-color="#A00000"/>
</radialGradient>
</defs>
</svg>
